<svg width="149" height="24" viewBox="0 0 149 24" fill="none" xmlns="http://www.w3.org/2000/svg">
<path fill-rule="evenodd" clip-rule="evenodd" d="M37.2501 1.4H42.322L46.697 5.01364H52.0364L42.4908 22.6H37.4189L33.0439 18.9864H27.7045L37.2501 1.4Z" fill="#3A4DB4"/>
<path fill-rule="evenodd" clip-rule="evenodd" d="M23.3978 1.4H28.4697L32.8447 5.01364H38.1841L28.6386 22.6H23.5667L19.1916 18.9864H13.8523L23.3978 1.4Z" fill="#9CA8E6"/>
<path fill-rule="evenodd" clip-rule="evenodd" d="M9.54553 1.4H14.6174L18.9925 5.01364H24.3318L14.7863 22.6H9.71439L5.33936 18.9864H0L9.54553 1.4Z" fill="#EBCF4D"/>
<path d="M75.6605 22L70.1123 15.4307L69.8189 15.0833H75.4928L75.7774 15.4172L80.1326 20.5278L81.4078 22H75.6605ZM60.0363 22V2.02778H75.996C76.7599 2.02778 77.4494 2.21296 78.0643 2.58333C78.6978 2.9537 79.2009 3.4537 79.5736 4.08333C79.9649 4.71296 80.1605 5.39815 80.1605 6.13889V11.3056C80.1605 12.0463 79.9649 12.7315 79.5736 13.3611C79.2009 13.9907 78.6978 14.4907 78.0643 14.8611C77.4494 15.2315 76.7599 15.4167 75.996 15.4167L75.7774 15.4172L70.1123 15.4307L64.3686 15.4444V22H60.0363ZM64.3686 11.0833H75.7723V6.33333H64.3686V11.0833Z" fill="#FBFBFB"/>
<path d="M87.1815 22C86.4362 22 85.7468 21.8148 85.1132 21.4444C84.4797 21.0741 83.9766 20.5741 83.6039 19.9444C83.2312 19.3148 83.0449 18.6296 83.0449 17.8889V2H87.3772V17.6667H98.7809V2H103.169V17.8889C103.169 18.6296 102.973 19.3148 102.582 19.9444C102.209 20.5741 101.706 21.0741 101.073 21.4444C100.458 21.8148 99.7778 22 99.0325 22H87.1815Z" fill="#FBFBFB"/>
<path d="M110.328 22C109.583 22 108.893 21.8148 108.26 21.4444C107.626 21.0741 107.123 20.5741 106.75 19.9444C106.378 19.3148 106.191 18.6296 106.191 17.8889V2H110.524V17.6667H121.927V2H126.315V17.8889C126.315 18.6296 126.12 19.3148 125.728 19.9444C125.356 20.5741 124.853 21.0741 124.219 21.4444C123.604 21.8148 122.924 22 122.179 22H110.328Z" fill="#FBFBFB"/>
<path d="M129.449 22V2H148.036V6.33333H133.838V9.83333H145.269V14.1667H133.838V22H129.449Z" fill="#FBFBFB"/>
</svg>
